<svg xmlns="http://www.w3.org/2000/svg" viewBox="0 0 64 64">
  <!-- Cloud -->
  <path d="M52 28c0-8.8-7.2-16-16-16-6.6 0-12.3 4-14.7 9.7C20.1 21.3 18.6 21 17 21c-6.6 0-12 5.4-12 12s5.4 12 12 12h35c4.4 0 8-3.6 8-8 0-4.2-3.3-7.7-7.5-8-.3-.3-.5-.6-.5-1z" fill="#5c6bc0"/>

  <!-- Lightning bolt -->
  <polygon points="30,28 26,38 32,38 28,50 38,34 32,34 36,28" fill="#ffd54f"/>

  <!-- Rain drops -->
  <line x1="18" y1="48" x2="16" y2="56" stroke="#64b5f6" stroke-width="2" stroke-linecap="round"/>
  <line x1="26" y1="52" x2="24" y2="60" stroke="#64b5f6" stroke-width="2" stroke-linecap="round"/>
  <line x1="44" y1="48" x2="42" y2="56" stroke="#64b5f6" stroke-width="2" stroke-linecap="round"/>
  <line x1="52" y1="50" x2="50" y2="58" stroke="#64b5f6" stroke-width="2" stroke-linecap="round"/>
</svg>
